<svg version="1.1" id="Layer_1" xmlns="http://www.w3.org/2000/svg" xmlns:xlink="http://www.w3.org/1999/xlink" x="0px" y="0px"
	 width="100%" viewBox="0 0 1024 1024" enable-background="new 0 0 1024 1024" xml:space="preserve">
<path fill="#000000" opacity="1.000000" stroke="none" 
	d="
M434.904297,546.951050 
	C448.268524,526.992249 457.586090,505.623779 460.343994,482.108124 
	C463.409119,455.972534 459.707947,430.620178 447.340332,406.934387 
	C432.052368,377.655701 408.683350,356.776367 379.680908,341.810272 
	C344.552277,323.682953 306.833252,316.948364 267.829742,319.568848 
	C209.104782,323.514221 156.998962,344.050659 114.313057,385.757568 
	C98.535522,401.173218 85.983955,418.878571 76.965515,439.063324 
	C75.958221,441.317810 75.843903,442.866730 77.686043,444.815643 
	C81.768417,449.134583 82.245979,454.251190 80.035477,459.666016 
	C75.013199,471.968384 57.567150,480.715729 44.780064,477.360535 
	C36.480865,475.182953 32.476456,467.470886 35.599136,459.466827 
	C37.787292,453.858154 41.470261,449.414276 46.687229,446.358276 
	C49.938820,444.453552 52.489674,442.017731 54.160885,438.563751 
	C71.343468,403.052032 97.003349,375.127441 129.394714,352.781891 
	C163.365646,329.346649 200.753799,315.174774 241.276550,308.653442 
	C258.551910,305.873352 275.914154,304.023773 293.433472,304.817322 
	C346.846802,307.236786 395.630005,322.415192 436.590607,358.107910 
	C468.160522,385.617615 486.093079,420.514496 489.817017,462.201385 
	C492.080963,487.544891 486.949188,511.959595 476.874146,535.272766 
	C457.353699,580.442017 424.544617,613.461731 382.480835,637.905884 
	C362.664673,649.421326 341.782043,658.551514 319.624603,664.477112 
	C309.355286,667.223389 298.873962,669.213562 288.434021,671.268555 
	C283.796661,672.181396 280.325684,674.045288 277.332733,677.977844 
	C269.319641,688.506897 258.582031,693.351990 245.314240,690.535339 
	C232.889282,687.897644 225.065125,678.961792 222.959946,665.937439 
	C220.908249,653.243896 226.878311,639.422119 237.234085,632.890259 
	C251.469467,623.911316 264.873199,625.158508 276.711884,636.792603 
	C279.031281,639.071960 281.223175,639.382507 284.305878,638.811462 
	C329.624176,630.416199 370.570709,612.819519 404.931396,581.478943 
	C416.152283,571.244324 426.481598,560.139404 434.904297,546.951050 
M250.574631,646.821411 
	C247.955124,647.689087 245.915543,649.365173 244.255402,651.502991 
	C239.267181,657.926697 241.438766,666.859985 248.688232,669.790588 
	C253.416687,671.702026 257.579132,670.330872 261.087708,667.106628 
	C264.695343,663.791443 265.910004,656.399170 263.914368,652.241455 
	C261.761017,647.755310 257.863464,646.000977 250.574631,646.821411 
M54.034950,465.432648 
	C55.174324,465.364410 56.356358,465.468140 57.445637,465.197968 
	C61.989361,464.070923 66.587227,459.468872 66.340790,456.242645 
	C66.163368,453.919952 64.419754,452.886505 62.395107,452.351990 
	C58.606030,451.351624 52.929298,453.870972 50.858883,457.521423 
	C48.934559,460.914276 48.726635,463.862854 54.034950,465.432648 
z"/>
<path fill="#000000" opacity="1.000000" stroke="none" 
	d="
M154.191193,567.867188 
	C130.747849,551.718323 114.030289,531.091736 106.992592,503.385620 
	C103.245758,488.635040 102.977348,473.809540 105.855705,458.896332 
	C106.429550,455.923157 108.158165,454.125214 111.212990,453.842682 
	C115.519203,453.444427 119.828850,452.994995 124.146950,452.834717 
	C130.224472,452.609100 131.019699,453.670258 130.057068,459.887939 
	C128.852463,467.668518 128.705521,475.491333 130.040329,483.234253 
	C134.412857,508.597961 148.115326,528.030823 168.915710,542.565002 
	C189.987930,557.289124 213.802383,563.488892 239.279587,564.877136 
	C275.887543,566.871826 309.215149,557.265137 339.255768,536.803589 
	C362.559998,520.930298 380.547821,500.292084 387.771790,472.331757 
	C395.018188,444.284515 390.017151,418.567078 370.507324,396.276306 
	C349.162262,371.888672 322.030029,359.854553 290.082642,357.030151 
	C282.105804,356.324921 275.218292,357.110016 268.091187,360.863007 
	C261.721985,364.216858 254.558563,364.036346 247.704803,361.235657 
	C242.996521,359.311676 240.098175,356.023529 239.686203,350.780060 
	C239.275909,345.557556 241.467178,341.763641 245.920593,339.195587 
	C254.721313,334.120728 263.829254,331.935059 273.512024,336.638367 
	C282.665222,341.084473 292.742828,340.035553 302.374115,341.611786 
	C327.527557,345.728363 351.338257,353.796234 371.997406,368.760803 
	C406.183746,393.523834 422.552734,427.235046 416.798035,469.619598 
	C412.593658,500.585663 396.202606,525.513489 373.222137,546.161804 
	C345.951660,570.664734 313.762909,585.109436 277.785675,590.868408 
	C241.520874,596.673401 206.094208,593.761841 172.338821,578.065674 
	C166.142639,575.184448 160.231247,571.773499 154.191193,567.867188 
M262.506073,344.198059 
	C258.815796,343.137085 255.980896,344.566345 253.840637,347.445099 
	C252.828873,348.806030 253.230042,350.412292 254.510101,351.473572 
	C257.128052,353.644135 260.118652,353.157227 263.000427,352.175232 
	C264.933319,351.516541 266.641541,350.342407 266.728058,347.994019 
	C266.814575,345.646667 264.889465,345.099579 262.506073,344.198059 
z"/>
<path fill="#000000" opacity="1.000000" stroke="none" 
	d="
M172.989471,435.144653 
	C184.409454,410.778076 203.378967,395.498627 227.980789,386.761566 
	C233.829330,384.684509 239.183456,382.287567 244.022247,378.083649 
	C252.598465,370.632599 266.845856,370.240875 275.277618,376.332947 
	C282.077576,381.246063 283.187714,388.824036 278.088470,395.520477 
	C271.611847,404.025848 256.090271,407.787109 246.327209,402.681671 
	C242.474930,400.667236 239.377289,400.731934 235.568512,402.399506 
	C222.398453,408.165619 210.478790,415.459869 202.080933,427.561157 
	C185.220886,451.856537 192.560104,481.611847 219.554184,493.716034 
	C253.414230,508.898895 289.912079,501.349609 314.818604,470.674683 
	C320.746429,463.373962 323.999420,454.804321 323.657104,445.253448 
	C323.492004,440.646851 325.609619,438.966187 329.833221,438.793243 
	C334.315460,438.609711 338.817017,438.935822 343.273682,437.949097 
	C347.446899,437.025177 349.300201,438.726959 349.472382,443.201324 
	C350.172913,461.404236 343.842377,477.132263 331.541504,489.975708 
	C301.739227,521.092590 265.066101,531.325439 223.464630,521.846985 
	C201.622787,516.870605 183.520065,505.230194 173.492142,483.881531 
	C165.970963,467.869537 166.162308,451.718689 172.989471,435.144653 
M263.031586,392.788147 
	C266.026733,390.976807 268.442749,388.451385 265.808105,385.166443 
	C263.312622,382.054993 259.555176,381.526886 255.876633,383.761383 
	C253.455490,385.232025 250.452316,386.700470 251.540939,390.165710 
	C252.819809,394.236542 256.523468,393.948181 259.915253,393.699280 
	C260.728455,393.639618 261.523285,393.329803 263.031586,392.788147 
z"/>
<path fill="#000000" opacity="1.000000" stroke="none" 
	d="
M552.549561,445.802673 
	C560.678101,447.233307 566.175171,451.226074 568.325134,459.003632 
	C570.821289,468.033112 566.403687,474.351715 559.398315,480.147797 
	C564.140747,485.622406 565.291870,492.509674 566.832214,499.263702 
	C567.261963,501.148315 568.097229,502.673218 570.317993,502.955322 
	C575.110962,503.564117 574.116272,507.224701 573.968506,510.259644 
	C573.800659,513.705383 571.086609,513.270447 568.777832,513.318481 
	C559.531006,513.510864 559.528931,513.510681 557.161621,504.476807 
	C555.897034,499.651245 554.903564,494.734894 553.314026,490.019226 
	C551.362305,484.229248 544.207764,481.253143 538.523682,483.368408 
	C536.766785,484.022217 536.388977,485.319672 536.367554,486.886627 
	C536.322021,490.215607 536.309570,493.545380 536.325256,496.874664 
	C536.341248,500.266205 535.459290,503.838318 540.858459,504.520386 
	C543.678650,504.876648 543.075378,508.174500 542.962524,510.468018 
	C542.843689,512.884705 541.203674,513.368591 539.149658,513.355042 
	C533.989014,513.320923 528.828125,513.340698 523.667297,513.335266 
	C521.717163,513.333191 519.809814,513.092590 519.814819,510.562653 
	C519.819397,508.238831 518.469788,505.052765 521.895691,504.207458 
	C525.052429,503.428619 525.724670,501.723602 525.706848,498.864380 
	C525.623901,485.546509 525.671570,472.227875 525.661743,458.909515 
	C525.660217,456.907501 525.914734,454.775970 522.908386,454.593842 
	C519.107605,454.363647 519.766113,451.475159 519.750671,449.031830 
	C519.731445,445.996277 521.758972,445.608459 524.135254,445.622894 
	C533.457642,445.679565 542.780090,445.719666 552.549561,445.802673 
M549.677429,473.583282 
	C550.458984,473.315918 551.251465,473.076630 552.020203,472.776520 
	C556.765808,470.923981 558.441223,467.336365 557.845886,462.456604 
	C557.265869,457.701538 554.130066,455.658447 549.814575,454.946869 
	C547.853760,454.623535 545.864258,454.379822 543.880249,454.308533 
	C536.547485,454.045135 536.208984,454.287842 536.347717,461.601624 
	C536.609497,475.406250 533.617371,473.753052 549.677429,473.583282 
z"/>
<path fill="#000000" opacity="1.000000" stroke="none" 
	d="
M690.529907,462.607605 
	C692.206360,457.841919 693.801086,453.463470 695.323059,449.059845 
	C697.167297,443.723694 701.709106,445.382996 705.481262,445.112183 
	C708.757507,444.876923 711.118774,445.764343 712.336731,449.395294 
	C717.578003,465.019775 723.032410,480.573151 728.473938,496.129791 
	C729.802917,499.929077 730.298523,504.413971 736.211304,504.256927 
	C738.596802,504.193634 738.246155,506.864838 738.237366,508.659088 
	C738.227295,510.721161 738.077026,512.756714 735.455688,513.266785 
	C729.478760,514.429871 723.482361,513.872314 717.556763,513.074646 
	C714.664246,512.685181 714.000122,507.071381 716.345886,504.695221 
	C717.151733,503.878937 718.674133,504.117981 719.179504,502.655670 
	C719.123230,502.296875 719.095337,501.801270 718.965027,501.334229 
	C716.071716,490.967621 716.069580,490.967865 705.468140,490.963348 
	C703.801819,490.962616 702.135437,490.970581 700.469116,490.967926 
	C691.206177,490.953278 691.357178,491.004608 688.358582,499.704071 
	C687.112183,503.320221 688.197632,505.834686 690.797607,508.017914 
	C691.984009,509.014252 693.346741,509.787811 692.744568,511.609741 
	C692.142517,513.431030 690.455017,513.235962 688.991699,513.434753 
	C684.011536,514.111145 679.036316,514.069702 674.040100,513.553589 
	C671.164246,513.256531 669.982910,511.668793 669.865784,508.949585 
	C669.754761,506.373962 670.229248,504.105804 673.309143,503.881409 
	C676.562561,503.644348 677.198120,501.250305 678.021667,498.859375 
	C682.142273,486.897064 686.282532,474.941528 690.529907,462.607605 
M704.203552,459.104034 
	C702.282227,457.151520 702.054565,459.386780 701.706848,460.289398 
	C700.455383,463.537994 699.396484,466.861206 698.280151,470.161377 
	C693.917175,483.059357 692.411926,481.950470 707.596802,481.995331 
	C710.931641,482.005157 712.188782,480.938995 710.861755,477.469177 
	C708.609802,471.580963 706.617371,465.593475 704.203552,459.104034 
z"/>
<path fill="#000000" opacity="1.000000" stroke="none" 
	d="
M812.583496,447.110596 
	C817.773804,449.153717 819.892578,454.240997 824.253540,456.836456 
	C826.309875,458.060303 825.519897,461.197021 825.045044,463.414551 
	C824.520508,465.864044 822.183716,465.143250 820.461121,465.284668 
	C816.418823,465.616608 813.269775,465.234100 811.701233,460.255768 
	C810.146912,455.322296 805.192871,454.486176 800.552673,454.381592 
	C796.074463,454.280640 792.405823,456.149261 790.165405,460.109436 
	C787.889404,464.132355 789.635986,468.435486 794.623047,470.569763 
	C800.122803,472.923462 805.791077,474.886169 811.400940,476.979126 
	C820.695435,480.446777 825.461304,486.646942 825.205811,495.004242 
	C824.938354,503.753693 818.869141,511.001923 809.755554,513.675476 
	C799.009521,516.827881 787.005371,514.192871 781.042664,504.553589 
	C780.354553,503.441223 779.480103,502.291962 778.408325,501.598145 
	C775.402771,499.652588 775.425903,496.821686 776.320068,494.077576 
	C777.371521,490.850403 780.463806,491.974304 782.796143,491.898438 
	C785.351624,491.815247 788.008606,491.300598 789.311035,494.872345 
	C792.664429,504.068329 798.605957,506.690643 807.560120,503.451263 
	C811.264954,502.110962 813.343079,499.509552 813.569946,495.675110 
	C813.787659,491.996338 812.050354,489.122192 808.621033,487.754456 
	C803.373779,485.661560 798.012573,483.851746 792.686035,481.960510 
	C781.840515,478.109863 777.089050,471.014954 778.619995,460.901245 
	C779.980408,451.913361 787.917419,445.340637 798.104370,444.683441 
	C802.999878,444.367584 807.750732,444.789520 812.583496,447.110596 
z"/>
<path fill="#000000" opacity="1.000000" stroke="none" 
	d="
M836.490723,508.044556 
	C838.537659,505.725006 838.665283,502.952515 838.668579,500.160339 
	C838.684998,486.331238 838.655945,472.501923 838.727722,458.673157 
	C838.742615,455.793030 838.505066,453.490906 835.011475,452.667389 
	C832.186829,452.001556 832.760742,449.350952 832.772766,447.242462 
	C832.786011,444.904083 834.382812,444.159515 836.389038,443.939850 
	C836.884888,443.885620 837.386353,443.882202 837.885193,443.855316 
	C849.168701,443.246918 849.171692,443.246918 849.192566,454.562958 
	C849.201172,459.202515 849.193970,463.842072 849.193970,468.525269 
	C852.341553,469.031769 854.278320,467.044098 856.617981,466.415375 
	C869.096069,463.062164 878.042419,469.519318 878.246216,482.287048 
	C878.336670,487.950806 878.367737,493.616943 878.315552,499.280975 
	C878.291504,501.882568 878.639893,503.805206 881.900024,504.073273 
	C885.847717,504.397827 885.130798,507.611603 885.168579,510.193481 
	C885.209595,512.998779 883.263672,513.310181 881.083801,513.302490 
	C876.418640,513.285950 871.753174,513.327454 867.088318,513.287659 
	C865.094177,513.270630 862.717896,513.430603 862.778137,510.499329 
	C862.827148,508.111633 861.265564,504.811859 865.414673,504.096283 
	C867.604614,503.718628 868.549622,502.613861 868.447815,500.352234 
	C868.200989,494.864441 868.207520,489.363220 867.874023,483.881866 
	C867.502502,477.776764 863.646301,474.018860 858.528320,474.441925 
	C852.012268,474.980560 848.702332,478.865051 848.998718,485.242310 
	C849.222839,490.064819 849.145752,494.902435 849.153503,499.733398 
	C849.157043,501.923492 849.517944,503.557404 852.232239,503.947784 
	C856.355469,504.540771 855.530640,507.910339 855.465637,510.639648 
	C855.384155,514.063721 852.655273,513.213928 850.644104,513.354065 
	C846.005249,513.677002 841.378784,514.411255 836.711243,513.474548 
	C831.740356,512.476990 830.697327,509.980743 833.297119,504.956421 
	C835.371887,504.901398 834.937683,507.252045 836.490723,508.044556 
z"/>
<path fill="#000000" opacity="1.000000" stroke="none" 
	d="
M601.855835,514.769287 
	C577.511963,514.330933 574.510071,487.388885 583.079773,474.229248 
	C587.766602,467.032104 597.869019,463.543701 606.981689,465.817657 
	C614.596802,467.717957 619.357727,473.848785 620.416260,483.095367 
	C620.529663,484.085480 620.759155,485.062500 620.868286,486.052917 
	C621.405884,490.931061 620.402649,491.952179 615.440918,491.832092 
	C608.628113,491.667175 601.813904,491.475677 595.000000,491.465790 
	C589.237854,491.457428 587.867493,493.902344 590.667419,498.972107 
	C593.337219,503.806305 597.755249,505.217651 602.923035,504.946869 
	C606.438843,504.762634 609.872253,503.974548 613.083496,502.597870 
	C616.343994,501.199982 617.678467,503.043335 618.859375,505.459686 
	C620.147095,508.094421 618.685486,509.415863 616.516357,510.548859 
	C612.033752,512.890320 607.338318,514.424194 601.855835,514.769287 
M598.581543,483.715820 
	C602.434814,483.412720 606.414490,484.478882 610.189514,482.954620 
	C608.840698,476.395355 604.776611,472.954071 599.323120,473.501678 
	C593.955627,474.040649 590.361877,477.877228 590.276184,483.236603 
	C592.675171,484.073700 595.180542,483.562103 598.581543,483.715820 
z"/>
<path fill="#000000" opacity="1.000000" stroke="none" 
	d="
M901.625732,467.278839 
	C907.533142,465.454132 913.161255,465.091400 918.783020,466.359619 
	C925.528503,467.881256 929.060364,472.151917 929.362366,479.066833 
	C929.660217,485.885681 929.788635,492.713501 929.878296,499.538910 
	C929.905518,501.611938 929.728027,503.342926 932.375183,504.205994 
	C935.311768,505.163483 935.448303,507.916382 934.997498,510.481659 
	C934.501587,513.303223 932.199158,513.508301 929.950500,513.316711 
	C926.541809,513.026306 923.010132,514.208496 919.727905,512.117615 
	C917.874634,510.937073 916.286865,512.782898 914.652222,513.384338 
	C905.415649,516.782776 895.370605,512.637024 892.805481,504.268494 
	C889.917847,494.847778 896.840149,486.028687 908.093262,484.889557 
	C910.073303,484.689087 912.100952,484.964722 914.082520,484.772400 
	C916.162231,484.570496 919.259888,485.985107 919.623657,482.344055 
	C919.999878,478.577881 918.291687,475.750122 914.418945,474.968445 
	C910.958191,474.269958 907.506531,475.374542 904.061523,475.741302 
	C901.234863,476.042236 898.098694,478.891754 896.368774,473.867706 
	C894.668884,468.930542 898.815613,468.950653 901.625732,467.278839 
M908.881104,493.360809 
	C905.399231,493.496124 902.642273,494.647034 902.135803,498.560425 
	C901.733582,501.669067 902.675781,504.346680 905.857422,505.338989 
	C910.214722,506.697876 914.500977,506.152344 918.069580,503.151611 
	C920.586426,501.035278 921.155579,498.060425 920.007141,494.994415 
	C918.814392,491.810333 916.185181,492.502075 913.677734,492.950653 
	C912.376038,493.183624 911.037415,493.210693 908.881104,493.360809 
z"/>
<path fill="#000000" opacity="1.000000" stroke="none" 
	d="
M1006.859619,469.029327 
	C1011.041687,472.782990 1012.109619,477.419830 1012.215759,482.363373 
	C1012.322937,487.355133 1012.229614,492.350891 1012.259399,497.344696 
	C1012.276733,500.256042 1011.699097,503.111786 1015.301880,504.998688 
	C1017.409729,506.102631 1016.879578,509.265198 1016.508667,511.482391 
	C1016.083496,514.023804 1013.660767,513.371521 1011.977478,513.291443 
	C1008.565491,513.129150 1005.081238,513.979004 1001.774963,511.958618 
	C1000.091248,510.929688 998.381165,512.843872 996.708618,513.431824 
	C985.519043,517.365295 974.669922,510.807953 974.670959,500.016632 
	C974.671570,493.694977 978.358826,488.754547 984.583740,486.516876 
	C989.070068,484.904236 993.701843,484.708496 998.373718,484.866852 
	C1001.811646,484.983368 1002.809326,483.571625 1001.915771,480.256134 
	C1000.748901,475.926117 997.597656,474.587555 993.677612,474.413116 
	C990.146057,474.256012 986.757385,475.262604 983.463318,476.402649 
	C981.120117,477.213531 979.694153,476.649078 978.668640,474.401794 
	C977.548340,471.946747 978.177551,470.156006 980.478943,469.000854 
	C989.127441,464.659943 997.829285,463.315552 1006.859619,469.029327 
M1002.676331,497.409241 
	C1002.614929,495.590271 1002.907715,493.406128 1000.364319,493.128418 
	C996.391174,492.694489 992.301025,492.308319 988.489075,493.740448 
	C983.980652,495.434296 982.738281,501.599731 986.334595,504.350586 
	C989.703064,506.927155 993.603394,506.178833 997.329834,505.008026 
	C1000.593323,503.982697 1003.036194,502.181580 1002.676331,497.409241 
z"/>
<path fill="#000000" opacity="1.000000" stroke="none" 
	d="
M659.803223,510.936646 
	C650.982300,515.975159 642.578979,516.664062 634.358948,510.456177 
	C631.894897,508.595276 626.967712,508.950836 628.479126,503.562012 
	C628.947021,501.893829 628.163879,499.642303 630.870239,499.409790 
	C633.793823,499.158539 636.893982,498.333130 638.963562,501.544342 
	C641.296875,505.164917 644.770691,506.292908 648.896179,505.893219 
	C651.588745,505.632355 653.863220,504.605682 654.479736,501.778320 
	C655.077698,499.036041 653.239929,497.345703 651.019592,496.353088 
	C647.382263,494.726990 643.619568,493.383209 639.922729,491.888245 
	C632.406799,488.848907 629.118225,484.214874 629.818604,477.698669 
	C630.522400,471.151123 634.733337,467.046204 642.352478,465.429504 
	C647.842102,464.264679 652.920654,465.177917 657.598328,468.302856 
	C658.700806,469.039368 659.784241,470.166565 660.982971,470.329346 
	C664.670227,470.830078 665.632446,472.976807 665.319824,476.270264 
	C665.162598,477.927002 665.386108,479.969818 663.125854,480.111633 
	C660.104187,480.301239 656.937561,481.267456 654.457520,478.053436 
	C650.976257,473.541901 646.912964,472.475525 642.754639,474.345276 
	C640.967590,475.148773 639.569458,476.308380 639.491272,478.361023 
	C639.410461,480.482513 640.916016,481.745056 642.630554,482.470459 
	C647.067627,484.347839 651.674072,485.841980 656.047180,487.850159 
	C665.905640,492.377228 667.674683,502.743774 659.803223,510.936646 
z"/>
<path fill="#000000" opacity="1.000000" stroke="none" 
	d="
M768.191772,449.017853 
	C768.280457,451.178864 768.181152,453.288300 766.341187,453.663971 
	C761.651245,454.621490 762.142761,457.988983 762.151489,461.336090 
	C762.178955,471.825745 762.149048,482.315552 762.151978,492.805298 
	C762.153809,499.397552 761.123840,506.238770 768.155029,512.060242 
	C760.194641,514.119385 753.529724,514.851440 746.949097,512.998840 
	C744.048645,512.182312 744.568176,509.592621 747.044373,508.219147 
	C750.557983,506.270355 751.656189,503.202667 751.663818,499.530884 
	C751.691467,486.210510 751.637573,472.889893 751.697205,459.569733 
	C751.709656,456.789551 751.327515,454.673615 747.946472,454.253754 
	C745.427185,453.940948 744.964050,451.915039 745.089294,449.741455 
	C745.203796,447.754333 745.871460,445.909424 748.133789,445.846771 
	C753.788086,445.690216 759.450012,445.725616 765.107239,445.801758 
	C766.776489,445.824188 767.834106,446.895905 768.191772,449.017853 
z"/>
<path fill="#000000" opacity="1.000000" stroke="none" 
	d="
M950.689087,477.000000 
	C950.688416,470.336639 950.648682,464.172943 950.706360,458.010132 
	C950.730225,455.463501 950.433167,453.457123 947.253296,452.995850 
	C943.619934,452.468750 943.687683,449.534546 943.898804,446.803650 
	C944.138977,443.698059 946.592102,443.870331 948.751953,443.854767 
	C962.864441,443.752930 960.208740,442.950073 960.331421,455.049255 
	C960.474976,469.206665 960.391541,483.366791 960.344910,497.525513 
	C960.334045,500.821686 960.119385,503.816772 964.733948,504.395447 
	C967.880676,504.790039 967.336609,507.744720 967.301880,510.050110 
	C967.261780,512.707336 965.578735,513.351990 963.298462,513.335876 
	C958.134827,513.299377 952.970886,513.306030 947.807068,513.290771 
	C945.851196,513.284973 944.035645,513.041626 943.975647,510.482300 
	C943.923950,508.272949 943.853455,505.752411 946.580261,505.206818 
	C950.608521,504.400879 950.781433,501.712982 950.731445,498.488281 
	C950.622925,491.493652 950.692505,484.496246 950.689087,477.000000 
z"/>
</svg>