<svg version="1.1" id="Layer_1" xmlns="http://www.w3.org/2000/svg" xmlns:xlink="http://www.w3.org/1999/xlink" x="0px" y="0px"
	 width="100%" viewBox="0 0 1171 976" enable-background="new 0 0 1171 976" xml:space="preserve">
<!-- <path fill="#FFFFFF" opacity="1.000000" stroke="none" 
	d="
M726.000000,977.000000 
	C484.028076,977.000000 242.556137,977.000000 1.042104,977.000000 
	C1.042104,651.732544 1.042104,326.465088 1.042104,1.098824 
	C391.222076,1.098824 781.444153,1.098824 1171.833130,1.098824 
	C1171.833130,326.333252 1171.833130,651.666626 1171.833130,977.000000 
	C1023.464844,977.000000 874.982422,977.000000 726.000000,977.000000 
M740.179565,781.919373 
	C741.401611,781.968567 742.623657,782.017822 744.623840,782.344971 
	C749.354858,781.786194 750.687927,783.753845 750.647095,788.553284 
	C750.404602,817.040649 750.535339,845.531189 750.521240,874.020630 
	C750.520325,875.943787 750.360840,877.866821 750.250916,880.334412 
	C745.987915,880.334412 742.239441,880.334412 737.884705,880.334412 
	C737.884705,884.196960 738.084167,887.503723 737.832458,890.775818 
	C737.541199,894.562317 739.281128,895.818604 742.780151,895.809570 
	C748.774780,895.794067 754.771484,896.074524 760.764343,895.998291 
	C766.842651,895.920959 772.917358,895.562317 779.472900,895.308289 
	C779.472900,891.248474 779.385254,888.094604 779.496033,884.947754 
	C779.622314,881.359680 778.097473,879.700806 774.437195,879.934326 
	C772.172485,880.078796 769.891113,879.961182 767.763550,879.961182 
	C767.475464,879.330261 767.226196,879.038269 767.224976,878.745239 
	C767.173096,865.751404 767.771423,852.713684 766.867920,839.780579 
	C766.349304,832.357117 769.769043,828.995605 775.341125,826.079224 
	C792.093384,817.311279 805.876526,825.465454 805.893433,844.210510 
	C805.902222,854.040161 805.892212,863.869873 805.890808,873.699524 
	C805.890503,875.773315 805.890808,877.847168 805.890808,880.348877 
	C801.620911,880.348877 798.179565,880.348877 794.484375,880.348877 
	C794.484375,885.375854 794.484375,889.965393 794.484375,895.298096 
	C808.005920,895.298096 821.353760,895.298096 834.688049,895.298096 
	C834.688049,889.909668 834.688049,885.203918 834.688049,880.211243 
	C832.456116,880.211243 830.610046,879.996948 828.831421,880.252136 
	C823.873779,880.963501 822.231201,879.260193 822.342590,874.013733 
	C822.635620,860.211365 822.739441,846.365723 821.953735,832.592346 
	C821.350159,822.013123 815.812195,813.881958 805.430847,810.304626 
	C792.912292,805.990906 781.201904,808.347412 770.404785,815.867371 
	C769.452515,816.530640 768.088501,816.602783 767.063477,816.031067 
	C767.063477,800.082520 767.063477,784.133972 767.063477,767.742859 
	C758.231445,767.742859 749.939148,767.691467 741.649536,767.819092 
	C740.780396,767.832458 739.184875,768.906250 739.187134,769.483032 
	C739.202698,773.365601 739.558960,777.246887 739.775024,781.202576 
	C739.775024,781.202576 739.799072,781.278687 740.179565,781.919373 
M1072.018921,879.050476 
	C1072.020630,864.565430 1072.053711,850.080261 1071.982910,835.595581 
	C1071.974365,833.865906 1071.400513,832.139038 1071.298218,830.332092 
	C1071.298218,830.332092 1071.270630,830.109985 1071.298462,829.326355 
	C1071.138794,828.565125 1070.979004,827.803833 1070.804565,826.326660 
	C1067.633911,817.057007 1061.233765,811.286499 1051.723633,809.144714 
	C1040.344360,806.581787 1029.256226,807.624146 1018.551025,812.369324 
	C1008.433289,816.854248 1008.186279,817.605652 1013.897949,827.272156 
	C1014.046631,827.523865 1014.415588,827.645447 1014.617188,827.783447 
	C1017.989624,826.690002 1021.264832,825.432922 1024.642944,824.586426 
	C1028.176392,823.700867 1031.782837,822.929321 1035.402344,822.595337 
	C1050.968384,821.159058 1058.495117,829.723755 1055.296753,845.296265 
	C1051.182861,844.992310 1047.027954,844.324402 1042.900879,844.466370 
	C1036.956177,844.670715 1030.868896,844.779419 1025.132202,846.145874 
	C1012.575500,849.136902 1004.043274,859.473999 1003.889343,870.708923 
	C1003.723389,882.823792 1011.087341,892.850708 1022.936462,896.303162 
	C1033.133789,899.274353 1042.654663,897.442749 1051.490967,891.693176 
	C1052.808960,890.835571 1054.098267,889.933960 1055.710327,888.843262 
	C1055.920288,891.293823 1056.072510,893.071228 1056.274414,895.427734 
	C1064.333008,895.427734 1072.174927,895.427734 1080.158936,895.427734 
	C1080.158936,890.238281 1080.158936,885.485168 1080.158936,880.460205 
	C1077.244507,880.290527 1074.624268,880.138062 1072.018921,879.050476 
M664.016907,691.486084 
	C668.495789,690.221436 673.030640,689.125916 677.444885,687.665894 
	C722.586304,672.734985 765.073486,652.432983 803.697571,624.513733 
	C828.203613,606.799744 850.925110,587.049377 870.523804,563.893738 
	C889.626221,541.324585 906.546082,517.355103 919.378967,490.550598 
	C935.809509,456.231598 946.115845,420.446442 947.743164,382.270020 
	C949.282593,346.154449 943.725525,311.286194 929.941040,277.842804 
	C913.470581,237.883072 888.866150,203.935425 855.684875,175.983292 
	C827.286865,152.060623 796.222595,132.860962 761.874023,118.859650 
	C709.632080,97.564537 655.008911,88.936111 598.941467,89.469002 
	C578.207458,89.666077 557.386597,91.829323 536.806885,94.595116 
	C504.786621,98.898445 473.548767,106.679260 443.163971,118.035347 
	C407.125000,131.504654 372.722748,147.927811 341.867523,171.109436 
	C316.721985,190.001343 290.900818,208.129410 270.569214,232.658035 
	C249.786346,257.731049 230.524734,283.802979 217.065948,313.657013 
	C214.518631,319.307404 211.051376,323.286560 205.657303,326.151489 
	C197.504257,330.481781 191.365417,337.039215 187.056427,345.163574 
	C178.689590,360.938690 187.747986,376.903229 205.585831,378.163849 
	C224.498505,379.500427 239.725586,371.945953 252.011627,358.273346 
	C262.205902,346.928558 264.527832,330.199036 250.379944,320.274445 
	C250.951981,318.758026 251.480927,317.185242 252.128876,315.663147 
	C270.440277,272.648926 298.936462,237.135895 333.935120,206.804581 
	C365.612030,179.351974 401.137207,157.680573 440.133911,142.230911 
	C491.320160,121.952019 544.322021,110.689331 599.704834,110.968224 
	C642.891052,111.185692 684.822327,117.731110 725.487183,132.215500 
	C775.419495,150.000809 818.724609,177.531860 852.466125,219.028366 
	C881.446655,254.669601 898.150146,295.355042 901.677856,341.149963 
	C904.799561,381.673248 896.774475,420.355499 879.828308,457.115448 
	C860.821411,498.345398 832.622681,532.647644 798.314392,562.008850 
	C769.153503,586.964722 736.686829,606.724487 701.425354,621.888916 
	C668.261780,636.151062 633.816345,645.960144 598.194275,651.722900 
	C595.084961,652.225830 593.133362,651.322632 591.065186,648.762451 
	C579.005188,633.833557 563.002686,628.834106 544.662903,632.588745 
	C518.398682,637.965942 500.874603,660.215759 500.724152,687.056274 
	C500.564667,715.505493 521.942322,737.643127 549.370972,736.685242 
	C568.936401,736.001953 583.754028,726.620544 594.173401,710.019836 
	C595.494263,707.915466 598.037964,705.763489 600.375183,705.239563 
	C621.291077,700.550720 642.287720,696.222229 664.016907,691.486084 
M731.937195,222.527161 
	C736.987976,227.824829 742.108521,233.057922 747.078064,238.430740 
	C776.494751,270.234711 787.795349,308.018188 782.710022,350.589233 
	C778.444885,386.294312 762.045166,416.660431 738.267334,443.098267 
	C720.342651,463.028198 699.563599,479.497406 675.981506,492.471893 
	C640.475281,512.006958 602.601379,523.958557 562.252136,526.668457 
	C531.463440,528.736328 500.790039,526.863220 470.809326,518.079468 
	C433.412811,507.123047 400.531403,489.214600 375.243011,458.793610 
	C347.298309,425.177338 335.973511,387.036072 343.286713,343.680298 
	C344.170868,338.438660 343.724365,337.803314 338.406281,338.132874 
	C329.119049,338.708374 319.840881,339.428345 310.557159,340.062317 
	C307.176849,340.293152 305.315948,341.576141 304.627472,345.363525 
	C301.399963,363.117554 299.728088,380.885773 301.933350,398.915466 
	C304.793304,422.297546 311.372223,444.439758 323.323456,464.846985 
	C344.348419,500.748016 374.788116,526.296021 411.619812,544.676819 
	C444.841370,561.256042 480.374084,569.462646 517.180969,571.731201 
	C548.995178,573.692017 580.533264,571.091614 611.827881,564.166138 
	C646.009216,556.601807 677.829224,543.620789 707.745117,525.777710 
	C735.421936,509.270081 759.686829,488.692841 780.010498,463.568481 
	C797.887695,441.468323 811.598694,417.247833 819.649231,389.786926 
	C829.629578,355.743286 829.314880,321.964325 818.868835,288.176453 
	C808.615112,255.010590 788.538391,228.529037 762.662720,206.083038 
	C745.524902,191.216766 725.773865,180.906281 705.031189,171.818710 
	C674.335999,158.370850 642.606567,150.441605 609.177246,148.771851 
	C600.500061,148.338455 592.360718,147.337555 583.988220,142.482346 
	C568.732605,133.635651 553.008118,138.311005 538.839844,147.290878 
	C531.834595,151.730835 527.613220,158.293152 529.115845,167.135468 
	C530.538940,175.509995 536.401489,180.000839 543.915527,182.450043 
	C558.770935,187.292221 572.628601,185.157974 585.682800,176.400726 
	C588.627747,174.425125 592.718933,172.902344 596.150635,173.133057 
	C608.715881,173.977814 621.314880,175.104599 633.735046,177.139328 
	C652.348755,180.188705 670.308594,185.939331 687.374451,193.911972 
	C703.229675,201.319107 718.079224,210.565216 731.937195,222.527161 
M449.066681,349.138306 
	C446.445526,329.919983 451.364502,312.570007 461.872162,296.513641 
	C477.029114,273.352814 498.921509,259.251495 524.205566,249.523666 
	C528.892700,247.720337 533.031555,247.385529 537.394165,250.305511 
	C550.922974,259.360657 574.694397,255.969025 588.136414,243.997513 
	C601.518311,232.079437 599.800171,215.674057 584.044983,207.057068 
	C568.409180,198.505371 543.959778,202.944977 531.904236,216.059769 
	C529.275391,218.919632 525.462524,221.333344 521.743774,222.450394 
	C481.630859,234.499695 448.029144,255.723648 425.537964,291.828339 
	C405.756836,323.582672 402.419189,357.185150 419.148926,391.242096 
	C432.867096,419.168335 456.705353,436.605011 485.181335,446.780914 
	C522.704468,460.189880 561.063538,461.012634 599.515381,449.433319 
	C632.996277,439.350952 662.202698,422.494141 684.738281,395.448059 
	C703.124329,373.382141 713.467407,348.111115 712.465942,318.817932 
	C712.306763,314.162476 711.116394,312.306122 706.093750,312.800598 
	C695.666687,313.827057 685.185303,314.307251 674.724121,314.979370 
	C672.127319,315.146210 670.913330,316.140106 671.046509,319.035980 
	C672.126404,342.513947 663.013977,362.536072 646.806946,378.314606 
	C607.339294,416.738739 560.284729,428.976013 507.566101,412.131805 
	C477.464050,402.513855 455.081390,383.442932 449.066681,349.138306 
M162.497559,880.334534 
	C160.231140,880.334534 157.964737,880.334534 155.610275,880.334534 
	C155.610275,885.784912 155.610275,890.515381 155.610275,895.384521 
	C169.195450,895.384521 182.422775,895.384521 196.128525,895.384521 
	C196.128525,891.108521 196.004852,887.470459 196.169373,883.845520 
	C196.291260,881.159790 195.029770,880.294067 192.610504,880.331055 
	C189.857132,880.373230 187.102631,880.340881 184.436020,880.340881 
	C184.436020,865.696716 184.436020,851.826538 184.436020,838.023804 
	C189.170547,838.023804 193.487778,837.944275 197.801193,838.038940 
	C210.012009,838.306824 215.207672,842.151489 219.106720,853.752563 
	C219.847717,855.957397 220.494308,858.200928 221.051666,860.459351 
	C223.640701,870.950378 226.135239,881.465149 228.806976,891.934875 
	C229.115143,893.142456 230.287598,895.039185 231.107925,895.064880 
	C238.791122,895.305481 246.484924,895.207581 254.139099,895.207581 
	C254.139099,889.238831 254.139099,884.146118 254.139099,878.929199 
	C252.618912,878.810852 251.645523,878.690430 250.669754,878.666260 
	C243.180389,878.480652 243.222458,878.476501 241.490143,871.070068 
	C238.336578,857.587158 237.019775,843.297119 224.848846,833.736023 
	C226.666443,832.727539 228.139404,831.982483 229.541229,831.121521 
	C248.058914,819.749268 250.884918,793.985901 235.018097,779.827393 
	C227.307709,772.947021 217.810333,770.704346 207.720078,770.668884 
	C191.566589,770.612183 175.412781,770.641113 159.259155,770.668152 
	C158.011154,770.670227 156.763596,770.942444 155.555740,771.084412 
	C155.555740,775.951538 155.555740,780.378235 155.555740,785.077454 
	C159.383865,785.260071 162.946289,785.429993 166.868347,785.617126 
	C166.868347,816.569702 166.899887,847.019409 166.723831,877.467896 
	C166.718262,878.431030 164.575378,879.381836 162.497559,880.334534 
M469.299805,895.903564 
	C472.133728,895.202759 476.653473,897.510132 476.856903,892.048218 
	C476.991699,888.428528 477.913025,883.514771 476.017487,881.505493 
	C474.019073,879.387085 469.090698,880.032715 465.018158,879.405396 
	C467.713898,871.263611 470.231598,863.207092 473.164642,855.304688 
	C473.588959,854.161377 475.998077,853.130371 477.502869,853.110413 
	C490.488861,852.937744 503.478668,852.953125 516.465576,853.086243 
	C517.905945,853.100952 520.239868,853.852661 520.626465,854.854187 
	C523.718018,862.863647 526.440186,871.015747 529.473877,879.691589 
	C525.954895,879.979919 523.233337,880.202881 519.935303,880.473145 
	C519.935303,884.663879 519.669250,888.640686 520.094482,892.542236 
	C520.225098,893.741272 522.225586,895.652161 523.405212,895.679016 
	C534.721497,895.935974 546.046753,895.939453 557.365234,895.758911 
	C558.559326,895.739868 560.655273,894.160583 560.745789,893.161438 
	C561.127380,888.949219 560.907288,884.682373 560.907288,880.101746 
	C558.405151,880.101746 556.725098,879.889526 555.117432,880.140686 
	C549.837341,880.965576 547.309082,878.682922 545.856079,873.606384 
	C543.618774,865.788879 540.637268,858.184326 537.971497,850.489441 
	C529.157227,825.046692 520.304016,799.617249 511.584900,774.141968 
	C510.644165,771.393250 509.478729,769.994812 506.347595,770.115356 
	C500.528198,770.339294 494.689697,770.311035 488.867767,770.122559 
	C486.008942,770.030029 484.798981,771.204590 483.901581,773.805298 
	C472.572205,806.638550 461.109314,839.425781 449.754181,872.250244 
	C447.140259,879.806274 447.267914,879.835999 439.187683,880.130859 
	C438.245941,880.165222 437.313995,880.468323 435.986908,880.721191 
	C435.986908,884.046387 436.255157,887.211914 435.922089,890.312866 
	C435.458344,894.630737 437.486023,895.915527 441.369507,895.887695 
	C450.359924,895.823120 459.351288,895.893860 469.299805,895.903564 
M714.470825,883.948730 
	C727.910400,870.267700 726.520996,840.302124 702.916443,831.062073 
	C695.651550,828.218262 688.235168,825.763977 680.931396,823.016235 
	C675.036499,820.798523 668.897583,818.971375 663.418152,815.965942 
	C654.430054,811.036072 653.185913,798.774231 660.681885,791.740540 
	C668.140076,784.742432 677.253235,783.530884 686.777649,785.888855 
	C695.305237,788.000061 701.454773,792.800232 702.310974,802.440063 
	C702.397156,803.410828 703.660339,805.041077 704.421814,805.067200 
	C710.670532,805.281494 716.929810,805.188110 723.468628,805.188110 
	C723.468628,802.041443 723.470276,799.551697 723.468323,797.061951 
	C723.465332,793.262085 724.315063,788.886047 717.935303,789.786316 
	C717.309204,789.874634 716.381714,788.375061 715.715149,787.518311 
	C714.186523,785.553650 712.911438,783.363342 711.220154,781.558105 
	C697.879761,767.318298 672.633240,764.291931 655.009399,774.920532 
	C643.522156,781.848145 637.460083,791.930786 638.242065,805.621704 
	C639.026489,819.356567 645.292908,829.403625 658.381714,834.479980 
	C663.946716,836.638306 669.775269,838.107056 675.408630,840.102173 
	C682.115540,842.477417 688.964478,844.624451 695.331970,847.731018 
	C700.435852,850.221191 703.667847,854.777039 703.955811,860.878296 
	C704.476807,871.915771 699.511597,877.800659 687.523926,880.276245 
	C668.574585,884.189514 657.628174,876.591858 655.201538,857.850220 
	C655.181946,857.698914 655.037415,857.563843 654.880554,857.304260 
	C648.058289,857.304260 641.169556,857.304260 634.319275,857.304260 
	C632.889587,871.770142 633.107361,872.325867 638.319458,872.837708 
	C643.227600,879.042175 646.713623,884.728210 651.403992,889.131409 
	C664.035522,900.990112 698.223022,902.840942 714.470825,883.948730 
M283.398254,891.139160 
	C298.963074,900.805786 314.914185,899.259033 330.586273,891.946533 
	C344.291718,885.551636 341.163940,886.989563 335.097168,876.324890 
	C334.949646,876.065552 334.592163,875.925659 333.989136,875.471130 
	C331.602539,876.468628 329.107635,877.889832 326.425232,878.556213 
	C320.180908,880.107483 313.859436,882.343872 307.545563,882.423523 
	C291.825439,882.621765 280.430511,869.563660 283.113708,855.049377 
	C302.640350,855.049377 322.244293,855.049377 341.997375,855.049377 
	C341.997375,850.044678 342.381531,845.388733 341.928741,840.815613 
	C340.251740,823.878235 331.037506,811.883118 316.752258,808.443604 
	C304.873535,805.583557 293.502472,807.717224 283.292786,814.325073 
	C272.244141,821.475830 267.563690,832.583130 266.425720,845.171631 
	C264.833099,862.789856 267.322021,879.164856 283.398254,891.139160 
M879.993042,808.309753 
	C871.385742,809.567688 863.195496,811.933167 855.748901,817.231506 
	C857.449890,820.978333 859.058167,824.520935 860.834717,828.434326 
	C863.285706,827.363342 865.164368,826.042603 867.193054,825.744873 
	C874.833374,824.623840 882.603210,822.684875 890.173035,823.215271 
	C899.569275,823.873535 903.626404,832.479370 901.824097,845.271667 
	C897.610901,844.974854 893.349487,844.659119 889.085876,844.377380 
	C878.874756,843.702759 869.150574,845.148010 860.594238,851.252747 
	C847.601318,860.523132 846.602112,879.773743 858.521729,890.245422 
	C869.272034,899.689941 885.806763,900.307251 897.803955,891.711914 
	C899.069519,890.805176 900.334229,889.897278 902.119629,888.616760 
	C902.441467,891.261841 902.655334,893.019226 902.973816,895.636658 
	C910.508667,895.636658 917.939270,895.723938 925.362183,895.524292 
	C926.273621,895.499756 927.870178,893.970154 927.907776,893.085327 
	C928.075684,889.126526 928.401733,884.967712 927.306213,881.287170 
	C926.974976,880.174500 922.252136,880.383118 919.548340,879.941223 
	C919.267700,879.895386 919.037720,879.539490 918.473083,879.067261 
	C918.473083,877.502686 918.489075,875.681274 918.470520,873.860291 
	C918.336853,860.721252 918.373413,847.577332 918.010193,834.444519 
	C917.610596,819.996826 910.327759,811.348145 896.280273,808.881775 
	C891.269409,808.002014 886.035034,808.395142 879.993042,808.309753 
M395.163910,861.133179 
	C397.877808,862.382507 400.770111,863.351440 403.268036,864.940369 
	C408.267853,868.120911 408.925323,876.426331 404.703491,880.169250 
	C395.265869,888.536255 378.133179,883.767883 374.546661,871.389771 
	C369.124390,871.389771 363.576721,871.389771 358.021851,871.389771 
	C358.021851,876.427612 358.021851,881.301331 358.021851,886.592957 
	C363.715271,885.477173 367.552887,887.534058 371.066833,891.523865 
	C373.019012,893.740417 376.253235,895.173157 379.180908,896.123230 
	C389.791077,899.566162 400.353699,898.473938 410.291016,893.859314 
	C419.237549,889.704895 423.649078,881.826721 423.853851,872.174988 
	C424.052551,862.808899 419.593842,855.525024 411.327484,850.947205 
	C408.301270,849.271179 404.937744,848.186829 401.688965,846.934082 
	C395.335297,844.483887 388.849823,842.342712 382.622803,839.609192 
	C378.786316,837.925110 376.121979,834.764038 376.595367,830.160339 
	C377.084930,825.399353 380.318970,822.807556 384.636566,821.680969 
	C390.834747,820.063599 396.921234,820.717346 402.417603,824.080139 
	C404.142731,825.135620 406.198639,827.079346 406.442444,828.845642 
	C407.051331,833.257263 409.677979,833.404419 413.092560,833.521729 
	C428.688538,834.057251 425.013153,834.165710 425.166229,822.265625 
	C425.207672,819.047607 424.190063,817.832581 420.880890,817.856140 
	C418.911377,817.870239 416.389557,817.344299 415.046082,816.075989 
	C404.199127,805.836548 391.574341,805.219727 378.240448,809.132141 
	C367.551727,812.268433 361.191132,820.557983 360.744568,830.936462 
	C360.270874,841.944092 365.263062,849.468628 376.260223,853.966187 
	C382.258698,856.419373 388.362305,858.615417 395.163910,861.133179 
M581.640686,880.029968 
	C577.202515,879.437378 575.510010,881.488464 575.988953,885.780762 
	C576.154480,887.264282 576.262695,888.807739 576.043213,890.270752 
	C575.379211,894.697754 577.939331,895.848389 581.566528,895.865112 
	C592.063965,895.913574 602.563904,895.996338 613.056763,895.776306 
	C614.388428,895.748352 616.548889,894.220215 616.859436,893.010742 
	C619.342163,883.341187 616.992554,880.318604 607.308350,880.049194 
	C606.691406,880.032043 606.081665,879.756958 605.335449,879.568115 
	C605.335449,848.139221 605.335449,816.908386 605.335449,785.571533 
	C606.271240,785.397278 606.901001,785.200012 607.537842,785.173462 
	C617.669678,784.751038 617.565857,784.760498 617.129150,774.527527 
	C617.007629,771.680237 616.000488,770.789551 613.260010,770.813782 
	C602.262451,770.910767 591.261902,770.957581 580.266113,770.788025 
	C576.876648,770.735718 575.773682,772.061157 576.084473,775.205566 
	C576.214966,776.525574 576.271301,777.895569 576.070801,779.198120 
	C575.323669,784.051208 577.343811,785.944336 582.116028,785.155151 
	C586.774719,784.384827 588.043823,786.450806 588.013611,791.013184 
	C587.828003,819.007935 587.833740,847.005066 588.015198,874.999878 
	C588.043274,879.325745 586.597290,880.759521 581.640686,880.029968 
M975.476074,835.500061 
	C975.476074,812.924927 975.476074,790.349731 975.476074,767.833496 
	C965.679016,767.833496 956.739258,767.833496 947.214539,767.833496 
	C947.214539,770.395996 947.212341,772.682373 947.214905,774.968750 
	C947.223083,782.339844 947.227478,782.527161 954.468201,782.385437 
	C958.264160,782.311096 959.653503,783.332642 959.630737,787.399780 
	C959.465942,816.887939 959.545959,846.377502 959.525696,875.866577 
	C959.524841,877.144165 959.300781,878.421692 959.132629,880.210938 
	C956.237427,880.210938 953.557251,879.892578 951.010986,880.338684 
	C949.636169,880.579529 947.536682,882.019226 947.413147,883.105652 
	C946.973450,886.973022 947.241333,890.920898 947.241333,895.761047 
	C960.426514,895.761047 972.873108,895.810425 985.317688,895.672485 
	C986.375061,895.660767 988.280579,894.451172 988.325256,893.709717 
	C988.571167,889.626465 988.810608,885.419128 987.966187,881.487671 
	C987.773438,880.590454 983.266907,880.154724 980.798523,880.315796 
	C976.661743,880.585815 975.228027,879.131226 975.299805,874.981995 
	C975.521667,862.157471 975.439514,849.327820 975.476074,835.500061 
z"/> -->
<path fill="#A63892" opacity="1.000000" stroke="none" 
	d="
M663.638794,691.636963 
	C642.287720,696.222229 621.291077,700.550720 600.375183,705.239563 
	C598.037964,705.763489 595.494263,707.915466 594.173401,710.019836 
	C583.754028,726.620544 568.936401,736.001953 549.370972,736.685242 
	C521.942322,737.643127 500.564667,715.505493 500.724152,687.056274 
	C500.874603,660.215759 518.398682,637.965942 544.662903,632.588745 
	C563.002686,628.834106 579.005188,633.833557 591.065186,648.762451 
	C593.133362,651.322632 595.084961,652.225830 598.194275,651.722900 
	C633.816345,645.960144 668.261780,636.151062 701.425354,621.888916 
	C736.686829,606.724487 769.153503,586.964722 798.314392,562.008850 
	C832.622681,532.647644 860.821411,498.345398 879.828308,457.115448 
	C896.774475,420.355499 904.799561,381.673248 901.677856,341.149963 
	C898.150146,295.355042 881.446655,254.669601 852.466125,219.028366 
	C818.724609,177.531860 775.419495,150.000809 725.487183,132.215500 
	C684.822327,117.731110 642.891052,111.185692 599.704834,110.968224 
	C544.322021,110.689331 491.320160,121.952019 440.133911,142.230911 
	C401.137207,157.680573 365.612030,179.351974 333.935120,206.804581 
	C298.936462,237.135895 270.440277,272.648926 252.128876,315.663147 
	C251.480927,317.185242 250.951981,318.758026 250.379944,320.274445 
	C264.527832,330.199036 262.205902,346.928558 252.011627,358.273346 
	C239.725586,371.945953 224.498505,379.500427 205.585831,378.163849 
	C187.747986,376.903229 178.689590,360.938690 187.056427,345.163574 
	C191.365417,337.039215 197.504257,330.481781 205.657303,326.151489 
	C211.051376,323.286560 214.518631,319.307404 217.065948,313.657013 
	C230.524734,283.802979 249.786346,257.731049 270.569214,232.658035 
	C290.900818,208.129410 316.721985,190.001343 341.867523,171.109436 
	C372.722748,147.927811 407.125000,131.504654 443.163971,118.035347 
	C473.548767,106.679260 504.786621,98.898445 536.806885,94.595116 
	C557.386597,91.829323 578.207458,89.666077 598.941467,89.469002 
	C655.008911,88.936111 709.632080,97.564537 761.874023,118.859650 
	C796.222595,132.860962 827.286865,152.060623 855.684875,175.983292 
	C888.866150,203.935425 913.470581,237.883072 929.941040,277.842804 
	C943.725525,311.286194 949.282593,346.154449 947.743164,382.270020 
	C946.115845,420.446442 935.809509,456.231598 919.378967,490.550598 
	C906.546082,517.355103 889.626221,541.324585 870.523804,563.893738 
	C850.925110,587.049377 828.203613,606.799744 803.697571,624.513733 
	C765.073486,652.432983 722.586304,672.734985 677.444885,687.665894 
	C673.030640,689.125916 668.495789,690.221436 663.638794,691.636963 
M571.974060,679.690918 
	C572.022217,673.126709 568.866638,668.230164 563.752197,664.534546 
	C556.915955,659.594727 548.766479,659.767151 540.865234,664.776978 
	C533.458252,669.473206 529.060730,678.612366 530.415222,686.494507 
	C532.152466,696.604614 538.585571,703.227722 547.404358,703.985168 
	C561.965637,705.235840 571.661255,696.000793 571.974060,679.690918 
M234.543961,350.927490 
	C235.543747,348.671478 236.895981,346.500549 237.465805,344.140717 
	C238.475113,339.960632 235.867523,336.174561 231.707565,335.102570 
	C222.886581,332.829529 211.316895,338.732300 207.868561,347.264984 
	C205.517227,353.083160 207.554276,357.586304 213.752594,358.975983 
	C221.983994,360.821442 228.618973,357.587128 234.543961,350.927490 
z"/>
<path fill="#F6AC92" opacity="1.000000" stroke="none" 
	d="
M731.676514,222.286713 
	C718.079224,210.565216 703.229675,201.319107 687.374451,193.911972 
	C670.308594,185.939331 652.348755,180.188705 633.735046,177.139328 
	C621.314880,175.104599 608.715881,173.977814 596.150635,173.133057 
	C592.718933,172.902344 588.627747,174.425125 585.682800,176.400726 
	C572.628601,185.157974 558.770935,187.292221 543.915527,182.450043 
	C536.401489,180.000839 530.538940,175.509995 529.115845,167.135468 
	C527.613220,158.293152 531.834595,151.730835 538.839844,147.290878 
	C553.008118,138.311005 568.732605,133.635651 583.988220,142.482346 
	C592.360718,147.337555 600.500061,148.338455 609.177246,148.771851 
	C642.606567,150.441605 674.335999,158.370850 705.031189,171.818710 
	C725.773865,180.906281 745.524902,191.216766 762.662720,206.083038 
	C788.538391,228.529037 808.615112,255.010590 818.868835,288.176453 
	C829.314880,321.964325 829.629578,355.743286 819.649231,389.786926 
	C811.598694,417.247833 797.887695,441.468323 780.010498,463.568481 
	C759.686829,488.692841 735.421936,509.270081 707.745117,525.777710 
	C677.829224,543.620789 646.009216,556.601807 611.827881,564.166138 
	C580.533264,571.091614 548.995178,573.692017 517.180969,571.731201 
	C480.374084,569.462646 444.841370,561.256042 411.619812,544.676819 
	C374.788116,526.296021 344.348419,500.748016 323.323456,464.846985 
	C311.372223,444.439758 304.793304,422.297546 301.933350,398.915466 
	C299.728088,380.885773 301.399963,363.117554 304.627472,345.363525 
	C305.315948,341.576141 307.176849,340.293152 310.557159,340.062317 
	C319.840881,339.428345 329.119049,338.708374 338.406281,338.132874 
	C343.724365,337.803314 344.170868,338.438660 343.286713,343.680298 
	C335.973511,387.036072 347.298309,425.177338 375.243011,458.793610 
	C400.531403,489.214600 433.412811,507.123047 470.809326,518.079468 
	C500.790039,526.863220 531.463440,528.736328 562.252136,526.668457 
	C602.601379,523.958557 640.475281,512.006958 675.981506,492.471893 
	C699.563599,479.497406 720.342651,463.028198 738.267334,443.098267 
	C762.045166,416.660431 778.444885,386.294312 782.710022,350.589233 
	C787.795349,308.018188 776.494751,270.234711 747.078064,238.430740 
	C742.108521,233.057922 736.987976,227.824829 731.676514,222.286713 
M560.986328,152.058746 
	C557.502258,154.104034 553.526794,155.631668 550.672607,158.340591 
	C547.832397,161.036209 548.273987,164.822723 551.433411,167.553391 
	C557.476746,172.776474 570.952759,170.327744 574.824951,163.425919 
	C576.605164,160.252747 576.701660,156.772125 573.440308,155.139725 
	C569.932129,153.383789 565.738831,152.996643 560.986328,152.058746 
z"/>
<path fill="#04A85B" opacity="1.000000" stroke="none" 
	d="
M449.106201,349.578186 
	C455.081390,383.442932 477.464050,402.513855 507.566101,412.131805 
	C560.284729,428.976013 607.339294,416.738739 646.806946,378.314606 
	C663.013977,362.536072 672.126404,342.513947 671.046509,319.035980 
	C670.913330,316.140106 672.127319,315.146210 674.724121,314.979370 
	C685.185303,314.307251 695.666687,313.827057 706.093750,312.800598 
	C711.116394,312.306122 712.306763,314.162476 712.465942,318.817932 
	C713.467407,348.111115 703.124329,373.382141 684.738281,395.448059 
	C662.202698,422.494141 632.996277,439.350952 599.515381,449.433319 
	C561.063538,461.012634 522.704468,460.189880 485.181335,446.780914 
	C456.705353,436.605011 432.867096,419.168335 419.148926,391.242096 
	C402.419189,357.185150 405.756836,323.582672 425.537964,291.828339 
	C448.029144,255.723648 481.630859,234.499695 521.743774,222.450394 
	C525.462524,221.333344 529.275391,218.919632 531.904236,216.059769 
	C543.959778,202.944977 568.409180,198.505371 584.044983,207.057068 
	C599.800171,215.674057 601.518311,232.079437 588.136414,243.997513 
	C574.694397,255.969025 550.922974,259.360657 537.394165,250.305511 
	C533.031555,247.385529 528.892700,247.720337 524.205566,249.523666 
	C498.921509,259.251495 477.029114,273.352814 461.872162,296.513641 
	C451.364502,312.570007 446.445526,329.919983 449.106201,349.578186 
M554.533691,219.760574 
	C552.454590,221.367142 550.015320,222.673004 548.370911,224.642517 
	C544.882446,228.820938 545.757568,233.406570 550.211426,236.644943 
	C557.274475,241.780457 570.274414,238.853149 574.384338,231.201736 
	C576.699280,226.891891 575.735352,223.159805 571.481750,220.573471 
	C566.292542,217.418167 560.827576,217.233795 554.533691,219.760574 
z"/>
<path fill="#08A75C" opacity="1.000000" stroke="none" 
	d="
M162.963226,880.336426 
	C164.575378,879.381836 166.718262,878.431030 166.723831,877.467896 
	C166.899887,847.019409 166.868347,816.569702 166.868347,785.617126 
	C162.946289,785.429993 159.383865,785.260071 155.555740,785.077454 
	C155.555740,780.378235 155.555740,775.951538 155.555740,771.084412 
	C156.763596,770.942444 158.011154,770.670227 159.259155,770.668152 
	C175.412781,770.641113 191.566589,770.612183 207.720078,770.668884 
	C217.810333,770.704346 227.307709,772.947021 235.018097,779.827393 
	C250.884918,793.985901 248.058914,819.749268 229.541229,831.121521 
	C228.139404,831.982483 226.666443,832.727539 224.848846,833.736023 
	C237.019775,843.297119 238.336578,857.587158 241.490143,871.070068 
	C243.222458,878.476501 243.180389,878.480652 250.669754,878.666260 
	C251.645523,878.690430 252.618912,878.810852 254.139099,878.929199 
	C254.139099,884.146118 254.139099,889.238831 254.139099,895.207581 
	C246.484924,895.207581 238.791122,895.305481 231.107925,895.064880 
	C230.287598,895.039185 229.115143,893.142456 228.806976,891.934875 
	C226.135239,881.465149 223.640701,870.950378 221.051666,860.459351 
	C220.494308,858.200928 219.847717,855.957397 219.106720,853.752563 
	C215.207672,842.151489 210.012009,838.306824 197.801193,838.038940 
	C193.487778,837.944275 189.170547,838.023804 184.436020,838.023804 
	C184.436020,851.826538 184.436020,865.696716 184.436020,880.340881 
	C187.102631,880.340881 189.857132,880.373230 192.610504,880.331055 
	C195.029770,880.294067 196.291260,881.159790 196.169373,883.845520 
	C196.004852,887.470459 196.128525,891.108521 196.128525,895.384521 
	C182.422775,895.384521 169.195450,895.384521 155.610275,895.384521 
	C155.610275,890.515381 155.610275,885.784912 155.610275,880.334534 
	C157.964737,880.334534 160.231140,880.334534 162.963226,880.336426 
M223.835571,816.183777 
	C224.678894,814.381042 225.722229,812.643188 226.332108,810.764648 
	C229.580338,800.759521 224.979691,789.965332 215.985229,787.348633 
	C205.640747,784.339233 195.014313,784.844299 184.277267,785.443909 
	C184.277267,798.321716 184.277267,810.732605 184.277267,823.162903 
	C193.310684,823.162903 202.150955,823.847717 210.805023,822.875427 
	C215.164230,822.385559 219.185593,818.889038 223.835571,816.183777 
z"/>
<path fill="#F5AD94" opacity="1.000000" stroke="none" 
	d="
M468.821045,895.906677 
	C459.351288,895.893860 450.359924,895.823120 441.369507,895.887695 
	C437.486023,895.915527 435.458344,894.630737 435.922089,890.312866 
	C436.255157,887.211914 435.986908,884.046387 435.986908,880.721191 
	C437.313995,880.468323 438.245941,880.165222 439.187683,880.130859 
	C447.267914,879.835999 447.140259,879.806274 449.754181,872.250244 
	C461.109314,839.425781 472.572205,806.638550 483.901581,773.805298 
	C484.798981,771.204590 486.008942,770.030029 488.867767,770.122559 
	C494.689697,770.311035 500.528198,770.339294 506.347595,770.115356 
	C509.478729,769.994812 510.644165,771.393250 511.584900,774.141968 
	C520.304016,799.617249 529.157227,825.046692 537.971497,850.489441 
	C540.637268,858.184326 543.618774,865.788879 545.856079,873.606384 
	C547.309082,878.682922 549.837341,880.965576 555.117432,880.140686 
	C556.725098,879.889526 558.405151,880.101746 560.907288,880.101746 
	C560.907288,884.682373 561.127380,888.949219 560.745789,893.161438 
	C560.655273,894.160583 558.559326,895.739868 557.365234,895.758911 
	C546.046753,895.939453 534.721497,895.935974 523.405212,895.679016 
	C522.225586,895.652161 520.225098,893.741272 520.094482,892.542236 
	C519.669250,888.640686 519.935303,884.663879 519.935303,880.473145 
	C523.233337,880.202881 525.954895,879.979919 529.473877,879.691589 
	C526.440186,871.015747 523.718018,862.863647 520.626465,854.854187 
	C520.239868,853.852661 517.905945,853.100952 516.465576,853.086243 
	C503.478668,852.953125 490.488861,852.937744 477.502869,853.110413 
	C475.998077,853.130371 473.588959,854.161377 473.164642,855.304688 
	C470.231598,863.207092 467.713898,871.263611 465.018158,879.405396 
	C469.090698,880.032715 474.019073,879.387085 476.017487,881.505493 
	C477.913025,883.514771 476.991699,888.428528 476.856903,892.048218 
	C476.653473,897.510132 472.133728,895.202759 468.821045,895.906677 
M510.440521,825.052734 
	C506.134216,812.767761 501.827881,800.482727 497.521545,788.197754 
	C496.975647,788.151794 496.429749,788.105774 495.883850,788.059753 
	C490.233643,804.786438 484.583405,821.513062 478.843323,838.505798 
	C491.432556,838.505798 502.939697,838.505798 515.059814,838.505798 
	C513.491333,833.881348 512.117004,829.829468 510.440521,825.052734 
z"/>
<path fill="#A53A91" opacity="1.000000" stroke="none" 
	d="
M714.248779,884.229431 
	C698.223022,902.840942 664.035522,900.990112 651.403992,889.131409 
	C646.713623,884.728210 643.227600,879.042175 638.319458,872.837708 
	C633.107361,872.325867 632.889587,871.770142 634.319275,857.304260 
	C641.169556,857.304260 648.058289,857.304260 654.880554,857.304260 
	C655.037415,857.563843 655.181946,857.698914 655.201538,857.850220 
	C657.628174,876.591858 668.574585,884.189514 687.523926,880.276245 
	C699.511597,877.800659 704.476807,871.915771 703.955811,860.878296 
	C703.667847,854.777039 700.435852,850.221191 695.331970,847.731018 
	C688.964478,844.624451 682.115540,842.477417 675.408630,840.102173 
	C669.775269,838.107056 663.946716,836.638306 658.381714,834.479980 
	C645.292908,829.403625 639.026489,819.356567 638.242065,805.621704 
	C637.460083,791.930786 643.522156,781.848145 655.009399,774.920532 
	C672.633240,764.291931 697.879761,767.318298 711.220154,781.558105 
	C712.911438,783.363342 714.186523,785.553650 715.715149,787.518311 
	C716.381714,788.375061 717.309204,789.874634 717.935303,789.786316 
	C724.315063,788.886047 723.465332,793.262085 723.468323,797.061951 
	C723.470276,799.551697 723.468628,802.041443 723.468628,805.188110 
	C716.929810,805.188110 710.670532,805.281494 704.421814,805.067200 
	C703.660339,805.041077 702.397156,803.410828 702.310974,802.440063 
	C701.454773,792.800232 695.305237,788.000061 686.777649,785.888855 
	C677.253235,783.530884 668.140076,784.742432 660.681885,791.740540 
	C653.185913,798.774231 654.430054,811.036072 663.418152,815.965942 
	C668.897583,818.971375 675.036499,820.798523 680.931396,823.016235 
	C688.235168,825.763977 695.651550,828.218262 702.916443,831.062073 
	C726.520996,840.302124 727.910400,870.267700 714.248779,884.229431 
z"/>
<path fill="#A53991" opacity="1.000000" stroke="none" 
	d="
M766.915771,816.949463 
	C768.088501,816.602783 769.452515,816.530640 770.404785,815.867371 
	C781.201904,808.347412 792.912292,805.990906 805.430847,810.304626 
	C815.812195,813.881958 821.350159,822.013123 821.953735,832.592346 
	C822.739441,846.365723 822.635620,860.211365 822.342590,874.013733 
	C822.231201,879.260193 823.873779,880.963501 828.831421,880.252136 
	C830.610046,879.996948 832.456116,880.211243 834.688049,880.211243 
	C834.688049,885.203918 834.688049,889.909668 834.688049,895.298096 
	C821.353760,895.298096 808.005920,895.298096 794.484375,895.298096 
	C794.484375,889.965393 794.484375,885.375854 794.484375,880.348877 
	C798.179565,880.348877 801.620911,880.348877 805.890808,880.348877 
	C805.890808,877.847168 805.890503,875.773315 805.890808,873.699524 
	C805.892212,863.869873 805.902222,854.040161 805.893433,844.210510 
	C805.876526,825.465454 792.093384,817.311279 775.341125,826.079224 
	C769.769043,828.995605 766.349304,832.357117 766.867920,839.780579 
	C767.771423,852.713684 767.173096,865.751404 767.224976,878.745239 
	C767.226196,879.038269 767.475464,879.330261 767.763550,879.961182 
	C769.891113,879.961182 772.172485,880.078796 774.437195,879.934326 
	C778.097473,879.700806 779.622314,881.359680 779.496033,884.947754 
	C779.385254,888.094604 779.472900,891.248474 779.472900,895.308289 
	C772.917358,895.562317 766.842651,895.920959 760.764343,895.998291 
	C754.771484,896.074524 748.774780,895.794067 742.780151,895.809570 
	C739.281128,895.818604 737.541199,894.562317 737.832458,890.775818 
	C738.084167,887.503723 737.884705,884.196960 737.884705,880.334412 
	C742.239441,880.334412 745.987915,880.334412 750.250916,880.334412 
	C750.360840,877.866821 750.520325,875.943787 750.521240,874.020630 
	C750.535339,845.531189 750.404602,817.040649 750.647095,788.553284 
	C750.687927,783.753845 749.354858,781.786194 744.663086,782.177490 
	C746.452759,782.010010 748.203247,782.010010 749.953735,782.010010 
	C749.951965,781.766235 749.950256,781.522461 749.948486,781.278687 
	C746.565369,781.278687 743.182190,781.278687 739.799072,781.278687 
	C739.799072,781.278687 739.775024,781.202576 739.854675,780.696533 
	C739.955872,778.024780 740.189575,775.835632 739.952393,773.698730 
	C739.530334,769.896057 741.083496,768.744995 744.780212,768.930603 
	C750.264771,769.206116 755.784363,769.212952 761.268127,768.929688 
	C765.020264,768.735718 766.143372,770.000549 766.081909,773.739380 
	C765.873596,786.399048 765.967590,799.064392 766.042969,811.727051 
	C766.053345,813.469543 766.611267,815.208801 766.915771,816.949463 
z"/>
<path fill="#09A75C" opacity="1.000000" stroke="none" 
	d="
M283.088562,890.955750 
	C267.322021,879.164856 264.833099,862.789856 266.425720,845.171631 
	C267.563690,832.583130 272.244141,821.475830 283.292786,814.325073 
	C293.502472,807.717224 304.873535,805.583557 316.752258,808.443604 
	C331.037506,811.883118 340.251740,823.878235 341.928741,840.815613 
	C342.381531,845.388733 341.997375,850.044678 341.997375,855.049377 
	C322.244293,855.049377 302.640350,855.049377 283.113708,855.049377 
	C280.430511,869.563660 291.825439,882.621765 307.545563,882.423523 
	C313.859436,882.343872 320.180908,880.107483 326.425232,878.556213 
	C329.107635,877.889832 331.602539,876.468628 333.989136,875.471130 
	C334.592163,875.925659 334.949646,876.065552 335.097168,876.324890 
	C341.163940,886.989563 344.291718,885.551636 330.586273,891.946533 
	C314.914185,899.259033 298.963074,900.805786 283.088562,890.955750 
M320.297455,827.272095 
	C313.007141,820.699341 302.813690,819.272400 294.480011,823.658020 
	C287.520111,827.320679 282.947418,834.976074 283.808655,841.592407 
	C297.493561,841.592407 311.183594,841.592407 326.385376,841.592407 
	C324.298584,836.478699 322.534302,832.155273 320.297455,827.272095 
z"/>
<path fill="#A53B91" opacity="1.000000" stroke="none" 
	d="
M880.447876,808.258484 
	C886.035034,808.395142 891.269409,808.002014 896.280273,808.881775 
	C910.327759,811.348145 917.610596,819.996826 918.010193,834.444519 
	C918.373413,847.577332 918.336853,860.721252 918.470520,873.860291 
	C918.489075,875.681274 918.473083,877.502686 918.473083,879.067261 
	C919.037720,879.539490 919.267700,879.895386 919.548340,879.941223 
	C922.252136,880.383118 926.974976,880.174500 927.306213,881.287170 
	C928.401733,884.967712 928.075684,889.126526 927.907776,893.085327 
	C927.870178,893.970154 926.273621,895.499756 925.362183,895.524292 
	C917.939270,895.723938 910.508667,895.636658 902.973816,895.636658 
	C902.655334,893.019226 902.441467,891.261841 902.119629,888.616760 
	C900.334229,889.897278 899.069519,890.805176 897.803955,891.711914 
	C885.806763,900.307251 869.272034,899.689941 858.521729,890.245422 
	C846.602112,879.773743 847.601318,860.523132 860.594238,851.252747 
	C869.150574,845.148010 878.874756,843.702759 889.085876,844.377380 
	C893.349487,844.659119 897.610901,844.974854 901.824097,845.271667 
	C903.626404,832.479370 899.569275,823.873535 890.173035,823.215271 
	C882.603210,822.684875 874.833374,824.623840 867.193054,825.744873 
	C865.164368,826.042603 863.285706,827.363342 860.834717,828.434326 
	C859.058167,824.520935 857.449890,820.978333 855.748901,817.231506 
	C863.195496,811.933167 871.385742,809.567688 880.447876,808.258484 
M898.699402,856.752258 
	C890.515808,857.479187 882.185364,857.501709 874.197388,859.166992 
	C868.339661,860.388184 865.747498,865.871338 866.107117,871.957336 
	C866.439087,877.575684 869.807007,881.553711 875.804932,883.100098 
	C884.928894,885.452454 892.895020,882.481934 899.986755,877.034546 
	C901.545532,875.837219 902.354858,873.058411 902.607300,870.902344 
	C903.029785,867.293701 902.975220,863.573242 902.584473,859.957886 
	C902.459229,858.799927 900.636658,857.825317 898.699402,856.752258 
z"/>
<path fill="#A53B91" opacity="1.000000" stroke="none" 
	d="
M1071.270630,830.109985 
	C1071.270630,830.109985 1071.298218,830.332092 1071.168701,830.883179 
	C1071.024414,846.623901 1070.990601,861.813660 1071.038330,877.003113 
	C1071.041382,877.998230 1071.667725,878.991394 1072.004028,879.985535 
	C1074.624268,880.138062 1077.244507,880.290527 1080.158936,880.460205 
	C1080.158936,885.485168 1080.158936,890.238281 1080.158936,895.427734 
	C1072.174927,895.427734 1064.333008,895.427734 1056.274414,895.427734 
	C1056.072510,893.071228 1055.920288,891.293823 1055.710327,888.843262 
	C1054.098267,889.933960 1052.808960,890.835571 1051.490967,891.693176 
	C1042.654663,897.442749 1033.133789,899.274353 1022.936462,896.303162 
	C1011.087341,892.850708 1003.723389,882.823792 1003.889343,870.708923 
	C1004.043274,859.473999 1012.575500,849.136902 1025.132202,846.145874 
	C1030.868896,844.779419 1036.956177,844.670715 1042.900879,844.466370 
	C1047.027954,844.324402 1051.182861,844.992310 1055.296753,845.296265 
	C1058.495117,829.723755 1050.968384,821.159058 1035.402344,822.595337 
	C1031.782837,822.929321 1028.176392,823.700867 1024.642944,824.586426 
	C1021.264832,825.432922 1017.989624,826.690002 1014.617188,827.783447 
	C1014.415588,827.645447 1014.046631,827.523865 1013.897949,827.272156 
	C1008.186279,817.605652 1008.433289,816.854248 1018.551025,812.369324 
	C1029.256226,807.624146 1040.344360,806.581787 1051.723633,809.144714 
	C1061.233765,811.286499 1067.633911,817.057007 1070.585815,826.904541 
	C1070.668213,828.358337 1070.969360,829.234192 1071.270630,830.109985 
M1020.058289,868.988220 
	C1019.988708,878.311523 1023.126343,882.499634 1031.803345,883.621582 
	C1039.496216,884.616272 1046.608032,882.308838 1052.971436,878.075256 
	C1054.428223,877.105957 1055.767212,874.902588 1055.887573,873.178345 
	C1056.261963,867.819092 1056.024780,862.417114 1056.024780,857.077637 
	C1048.307983,857.077637 1041.343872,856.631958 1034.464233,857.203674 
	C1027.665649,857.768616 1022.008545,860.726318 1020.058289,868.988220 
z"/>
<path fill="#0AA75D" opacity="1.000000" stroke="none" 
	d="
M394.791199,861.030273 
	C388.362305,858.615417 382.258698,856.419373 376.260223,853.966187 
	C365.263062,849.468628 360.270874,841.944092 360.744568,830.936462 
	C361.191132,820.557983 367.551727,812.268433 378.240448,809.132141 
	C391.574341,805.219727 404.199127,805.836548 415.046082,816.075989 
	C416.389557,817.344299 418.911377,817.870239 420.880890,817.856140 
	C424.190063,817.832581 425.207672,819.047607 425.166229,822.265625 
	C425.013153,834.165710 428.688538,834.057251 413.092560,833.521729 
	C409.677979,833.404419 407.051331,833.257263 406.442444,828.845642 
	C406.198639,827.079346 404.142731,825.135620 402.417603,824.080139 
	C396.921234,820.717346 390.834747,820.063599 384.636566,821.680969 
	C380.318970,822.807556 377.084930,825.399353 376.595367,830.160339 
	C376.121979,834.764038 378.786316,837.925110 382.622803,839.609192 
	C388.849823,842.342712 395.335297,844.483887 401.688965,846.934082 
	C404.937744,848.186829 408.301270,849.271179 411.327484,850.947205 
	C419.593842,855.525024 424.052551,862.808899 423.853851,872.174988 
	C423.649078,881.826721 419.237549,889.704895 410.291016,893.859314 
	C400.353699,898.473938 389.791077,899.566162 379.180908,896.123230 
	C376.253235,895.173157 373.019012,893.740417 371.066833,891.523865 
	C367.552887,887.534058 363.715271,885.477173 358.021851,886.592957 
	C358.021851,881.301331 358.021851,876.427612 358.021851,871.389771 
	C363.576721,871.389771 369.124390,871.389771 374.546661,871.389771 
	C378.133179,883.767883 395.265869,888.536255 404.703491,880.169250 
	C408.925323,876.426331 408.267853,868.120911 403.268036,864.940369 
	C400.770111,863.351440 397.877808,862.382507 394.791199,861.030273 
z"/>
<path fill="#F5AD93" opacity="1.000000" stroke="none" 
	d="
M582.097900,880.034302 
	C586.597290,880.759521 588.043274,879.325745 588.015198,874.999878 
	C587.833740,847.005066 587.828003,819.007935 588.013611,791.013184 
	C588.043823,786.450806 586.774719,784.384827 582.116028,785.155151 
	C577.343811,785.944336 575.323669,784.051208 576.070801,779.198120 
	C576.271301,777.895569 576.214966,776.525574 576.084473,775.205566 
	C575.773682,772.061157 576.876648,770.735718 580.266113,770.788025 
	C591.261902,770.957581 602.262451,770.910767 613.260010,770.813782 
	C616.000488,770.789551 617.007629,771.680237 617.129150,774.527527 
	C617.565857,784.760498 617.669678,784.751038 607.537842,785.173462 
	C606.901001,785.200012 606.271240,785.397278 605.335449,785.571533 
	C605.335449,816.908386 605.335449,848.139221 605.335449,879.568115 
	C606.081665,879.756958 606.691406,880.032043 607.308350,880.049194 
	C616.992554,880.318604 619.342163,883.341187 616.859436,893.010742 
	C616.548889,894.220215 614.388428,895.748352 613.056763,895.776306 
	C602.563904,895.996338 592.063965,895.913574 581.566528,895.865112 
	C577.939331,895.848389 575.379211,894.697754 576.043213,890.270752 
	C576.262695,888.807739 576.154480,887.264282 575.988953,885.780762 
	C575.510010,881.488464 577.202515,879.437378 582.097900,880.034302 
z"/>
<path fill="#A53A91" opacity="1.000000" stroke="none" 
	d="
M975.475708,836.000122 
	C975.439514,849.327820 975.521667,862.157471 975.299805,874.981995 
	C975.228027,879.131226 976.661743,880.585815 980.798523,880.315796 
	C983.266907,880.154724 987.773438,880.590454 987.966187,881.487671 
	C988.810608,885.419128 988.571167,889.626465 988.325256,893.709717 
	C988.280579,894.451172 986.375061,895.660767 985.317688,895.672485 
	C972.873108,895.810425 960.426514,895.761047 947.241333,895.761047 
	C947.241333,890.920898 946.973450,886.973022 947.413147,883.105652 
	C947.536682,882.019226 949.636169,880.579529 951.010986,880.338684 
	C953.557251,879.892578 956.237427,880.210938 959.132629,880.210938 
	C959.300781,878.421692 959.524841,877.144165 959.525696,875.866577 
	C959.545959,846.377502 959.465942,816.887939 959.630737,787.399780 
	C959.653503,783.332642 958.264160,782.311096 954.468201,782.385437 
	C947.227478,782.527161 947.223083,782.339844 947.214905,774.968750 
	C947.212341,772.682373 947.214539,770.395996 947.214539,767.833496 
	C956.739258,767.833496 965.679016,767.833496 975.476074,767.833496 
	C975.476074,790.349731 975.476074,812.924927 975.475708,836.000122 
z"/>
<path fill="#964285" opacity="1.000000" stroke="none" 
	d="
M766.989624,816.490295 
	C766.611267,815.208801 766.053345,813.469543 766.042969,811.727051 
	C765.967590,799.064392 765.873596,786.399048 766.081909,773.739380 
	C766.143372,770.000549 765.020264,768.735718 761.268127,768.929688 
	C755.784363,769.212952 750.264771,769.206116 744.780212,768.930603 
	C741.083496,768.744995 739.530334,769.896057 739.952393,773.698730 
	C740.189575,775.835632 739.955872,778.024780 739.869629,780.659485 
	C739.558960,777.246887 739.202698,773.365601 739.187134,769.483032 
	C739.184875,768.906250 740.780396,767.832458 741.649536,767.819092 
	C749.939148,767.691467 758.231445,767.742859 767.063477,767.742859 
	C767.063477,784.133972 767.063477,800.082520 766.989624,816.490295 
z"/>
<path fill="#8F4580" opacity="1.000000" stroke="none" 
	d="
M1072.011475,879.518005 
	C1071.667725,878.991394 1071.041382,877.998230 1071.038330,877.003113 
	C1070.990601,861.813660 1071.024414,846.623901 1071.063965,830.922546 
	C1071.400513,832.139038 1071.974365,833.865906 1071.982910,835.595581 
	C1072.053711,850.080261 1072.020630,864.565430 1072.011475,879.518005 
z"/>
<path fill="#964285" opacity="1.000000" stroke="none" 
	d="
M739.989319,781.598999 
	C743.182190,781.278687 746.565369,781.278687 749.948486,781.278687 
	C749.950256,781.522461 749.951965,781.766235 749.953735,782.010010 
	C748.203247,782.010010 746.452759,782.010010 744.273987,782.038513 
	C742.623657,782.017822 741.401611,781.968567 739.989319,781.598999 
z"/>
<!-- <path fill="#8F4580" opacity="1.000000" stroke="none" 
	d="
M1071.284546,829.718140 
	C1070.969360,829.234192 1070.668213,828.358337 1070.593140,827.262573 
	C1070.979004,827.803833 1071.138794,828.565125 1071.284546,829.718140 
z"/>
<path fill="#FEFBFD" opacity="1.000000" stroke="none" 
	d="
M571.975098,680.135742 
	C571.661255,696.000793 561.965637,705.235840 547.404358,703.985168 
	C538.585571,703.227722 532.152466,696.604614 530.415222,686.494507 
	C529.060730,678.612366 533.458252,669.473206 540.865234,664.776978 
	C548.766479,659.767151 556.915955,659.594727 563.752197,664.534546 
	C568.866638,668.230164 572.022217,673.126709 571.975098,680.135742 
z"/>
<path fill="#FDF9FC" opacity="1.000000" stroke="none" 
	d="
M234.296936,351.198181 
	C228.618973,357.587128 221.983994,360.821442 213.752594,358.975983 
	C207.554276,357.586304 205.517227,353.083160 207.868561,347.264984 
	C211.316895,338.732300 222.886581,332.829529 231.707565,335.102570 
	C235.867523,336.174561 238.475113,339.960632 237.465805,344.140717 
	C236.895981,346.500549 235.543747,348.671478 234.296936,351.198181 
z"/>
<path fill="#FEFBF8" opacity="1.000000" stroke="none" 
	d="
M561.415405,152.035492 
	C565.738831,152.996643 569.932129,153.383789 573.440308,155.139725 
	C576.701660,156.772125 576.605164,160.252747 574.824951,163.425919 
	C570.952759,170.327744 557.476746,172.776474 551.433411,167.553391 
	C548.273987,164.822723 547.832397,161.036209 550.672607,158.340591 
	C553.526794,155.631668 557.502258,154.104034 561.415405,152.035492 
z"/>
<path fill="#F3FDF8" opacity="1.000000" stroke="none" 
	d="
M554.875977,219.564575 
	C560.827576,217.233795 566.292542,217.418167 571.481750,220.573471 
	C575.735352,223.159805 576.699280,226.891891 574.384338,231.201736 
	C570.274414,238.853149 557.274475,241.780457 550.211426,236.644943 
	C545.757568,233.406570 544.882446,228.820938 548.370911,224.642517 
	C550.015320,222.673004 552.454590,221.367142 554.875977,219.564575 
z"/>
<path fill="#F7FDFB" opacity="1.000000" stroke="none" 
	d="
M223.597656,816.467896 
	C219.185593,818.889038 215.164230,822.385559 210.805023,822.875427 
	C202.150955,823.847717 193.310684,823.162903 184.277267,823.162903 
	C184.277267,810.732605 184.277267,798.321716 184.277267,785.443909 
	C195.014313,784.844299 205.640747,784.339233 215.985229,787.348633 
	C224.979691,789.965332 229.580338,800.759521 226.332108,810.764648 
	C225.722229,812.643188 224.678894,814.381042 223.597656,816.467896 
z"/>
<path fill="#FEFCFA" opacity="1.000000" stroke="none" 
	d="
M510.591614,825.415161 
	C512.117004,829.829468 513.491333,833.881348 515.059814,838.505798 
	C502.939697,838.505798 491.432556,838.505798 478.843323,838.505798 
	C484.583405,821.513062 490.233643,804.786438 495.883850,788.059753 
	C496.429749,788.105774 496.975647,788.151794 497.521545,788.197754 
	C501.827881,800.482727 506.134216,812.767761 510.591614,825.415161 
z"/>
<path fill="#F3FDF8" opacity="1.000000" stroke="none" 
	d="
M320.533722,827.551941 
	C322.534302,832.155273 324.298584,836.478699 326.385376,841.592407 
	C311.183594,841.592407 297.493561,841.592407 283.808655,841.592407 
	C282.947418,834.976074 287.520111,827.320679 294.480011,823.658020 
	C302.813690,819.272400 313.007141,820.699341 320.533722,827.551941 
z"/>
<path fill="#FDF8FC" opacity="1.000000" stroke="none" 
	d="
M899.145020,856.759521 
	C900.636658,857.825317 902.459229,858.799927 902.584473,859.957886 
	C902.975220,863.573242 903.029785,867.293701 902.607300,870.902344 
	C902.354858,873.058411 901.545532,875.837219 899.986755,877.034546 
	C892.895020,882.481934 884.928894,885.452454 875.804932,883.100098 
	C869.807007,881.553711 866.439087,877.575684 866.107117,871.957336 
	C865.747498,865.871338 868.339661,860.388184 874.197388,859.166992 
	C882.185364,857.501709 890.515808,857.479187 899.145020,856.759521 
z"/>
<path fill="#FEFAFD" opacity="1.000000" stroke="none" 
	d="
M1020.093018,868.575195 
	C1022.008545,860.726318 1027.665649,857.768616 1034.464233,857.203674 
	C1041.343872,856.631958 1048.307983,857.077637 1056.024780,857.077637 
	C1056.024780,862.417114 1056.261963,867.819092 1055.887573,873.178345 
	C1055.767212,874.902588 1054.428223,877.105957 1052.971436,878.075256 
	C1046.608032,882.308838 1039.496216,884.616272 1031.803345,883.621582 
	C1023.126343,882.499634 1019.988708,878.311523 1020.093018,868.575195 
z"/> -->
</svg>